<svg width="58" height="53" viewBox="0 0 58 53" fill="none" xmlns="http://www.w3.org/2000/svg">
<path fill-rule="evenodd" clip-rule="evenodd" d="M15.9522 0C14.9444 0.000350123 13.9546 0.287606 13.083 0.832665C12.2115 1.37772 11.4892 2.16122 10.9893 3.10377L0.754729 22.3945C0.260226 23.3255 6.39324e-05 24.3795 0 25.4521V39.3021C6.02868e-05 40.2576 0.206577 41.2001 0.603212 42.0548L3.79938 48.9397C4.27411 49.963 5.00405 50.8236 5.9074 51.4251C6.81074 52.0266 7.85178 52.3452 8.91381 52.3453H11.4353C12.9517 52.3453 14.406 51.6964 15.4783 50.5415C16.5505 49.3867 17.1529 47.8203 17.1529 46.187H40.0235C40.0235 47.8203 40.6259 49.3867 41.6982 50.5415C42.7705 51.6964 44.2248 52.3453 45.7412 52.3453H48.2627C49.3247 52.3452 50.3657 52.0266 51.2691 51.4251C52.1724 50.8236 52.9024 49.963 53.3771 48.9397L56.5733 42.0548C56.9706 41.2019 57.1765 40.2566 57.1765 39.3021V25.4521C57.1764 24.3795 56.9162 23.3255 56.4217 22.3945L46.1871 3.10377C45.6873 2.16122 44.965 1.37772 44.0934 0.832665C43.2219 0.287606 42.232 0.000350123 41.2242 0H15.9522ZM28.5882 24.6331C24.0227 24.6331 19.8059 23.5769 15.572 21.8772C14.8934 21.5122 14.108 21.4525 13.3885 21.7112C12.669 21.9699 12.0744 22.5258 11.7355 23.2567C11.3966 23.9876 11.3411 24.8335 11.5813 25.6085C11.8215 26.3834 12.3376 27.0239 13.0162 27.3889C14.4285 28.1433 21.6127 30.7913 28.5882 30.7913C33.8885 30.7913 39.3603 29.9476 44.1545 27.392C44.8297 27.0222 45.3429 26.3815 45.5836 25.6079C45.8242 24.8344 45.773 23.99 45.441 23.2567C45.2733 22.8947 45.041 22.5718 44.7574 22.3065C44.4738 22.0412 44.1444 21.8388 43.7881 21.7107C43.4318 21.5825 43.0556 21.5313 42.6809 21.5599C42.3062 21.5885 41.9404 21.6963 41.6045 21.8772C37.7022 23.9772 32.865 24.6331 28.5882 24.6331Z" fill="white"/>
</svg>
